<?xml version="1.0" encoding="UTF-8"?>
<svg id="Layer_2" data-name="Layer 2" xmlns="http://www.w3.org/2000/svg" viewBox="0 0 333.51 86.98">
  <defs>
    <style>
      .cls-1 {
        fill: #1f3d4d;
      }
    </style>
  </defs>
  <g id="Layer_1-2" data-name="Layer 1">
    <g>
      <g>
        <path class="cls-1" d="M75.81,27.33c-3.23,3.23-29.08,29.08-29.08,29.08,0,0,10.49,10.49,12.91,12.91q3.23,3.23,6.46,0c2.32-2.32,17.74-17.74,20.67-20.67.13-.13.27-.49.19-.8-.71-2.81-4.35-17.12-5.62-22.41-1.1-3.12-2.33-1.33-5.53,1.87Z"/>
        <path class="cls-1" d="M27.32,11.17c3.23,3.23,29.08,29.09,29.08,29.09,0,0,10.49-10.49,12.91-12.92q3.23-3.23,0-6.46c-2.32-2.32-17.74-17.74-20.67-20.67-.13-.13-.49-.27-.8-.19-2.81.72-17.12,4.35-22.41,5.62-3.12,1.1-1.33,2.33,1.88,5.53Z"/>
        <path class="cls-1" d="M11.17,59.63c3.23-3.23,29.08-29.08,29.08-29.08,0,0-10.49-10.49-12.92-12.91q-3.23-3.23-6.46,0C18.57,19.96,3.15,35.38.22,38.31c-.13.13-.27.49-.19.8.72,2.81,4.35,17.12,5.62,22.41,1.1,3.12,2.33,1.33,5.53-1.88Z"/>
        <path class="cls-1" d="M59.65,75.81c-3.23-3.23-29.08-29.09-29.08-29.09,0,0-10.49,10.5-12.91,12.92q-3.23,3.23,0,6.46c2.32,2.32,17.74,17.74,20.67,20.67.13.13.49.27.8.19,2.81-.71,17.12-4.35,22.4-5.62,3.12-1.1,1.33-2.33-1.88-5.53Z"/>
      </g>
      <path class="cls-1" d="M131.06,56.76h-5.97l-5.65-18-5.65,18h-5.92l-8.86-32.7h7.53l4.64,18.97,5.65-18.97h5.23l5.6,18.97,4.68-18.97h7.58l-8.86,32.7Z"/>
      <path class="cls-1" d="M144.79,56.76V24.07h7.26v32.7h-7.26Z"/>
      <path class="cls-1" d="M180.19,56.76l-11.71-18.28v18.28h-7.26V24.07h6.38l11.71,18.23v-18.23h7.21v32.7h-6.34Z"/>
      <path class="cls-1" d="M204.02,57.04c-4.96,0-8.91-.96-12.17-4.32l4.64-4.64c1.88,1.88,4.78,2.53,7.58,2.53,3.49,0,5.28-1.24,5.28-3.49,0-.96-.28-1.79-.83-2.34-.55-.5-1.24-.83-2.53-1.01l-3.95-.55c-2.89-.41-5.01-1.33-6.47-2.8-1.56-1.56-2.3-3.72-2.3-6.47,0-5.93,4.41-10.15,11.66-10.15,4.59,0,7.99,1.1,10.79,3.86l-4.55,4.54c-2.07-2.02-4.64-2.11-6.43-2.11-3.12,0-4.55,1.75-4.55,3.58,0,.6.23,1.38.83,1.93.5.51,1.42.96,2.62,1.1l3.9.55c2.99.46,4.96,1.33,6.34,2.62,1.75,1.7,2.53,4.09,2.53,7.07,0,6.47-5.51,10.1-12.4,10.1Z"/>
      <path class="cls-1" d="M234.64,30.49v26.27h-7.21v-26.27h-8.31v-6.43h23.79v6.43h-8.27Z"/>
      <path class="cls-1" d="M267.38,53.41c-2.34,2.34-5.14,3.63-9,3.63s-6.66-1.29-9-3.63c-3.4-3.4-3.26-7.71-3.26-13s-.14-9.6,3.26-13c2.34-2.34,5.14-3.63,9-3.63s6.66,1.29,8.96,3.63c3.4,3.4,3.31,7.71,3.31,13s.09,9.6-3.26,13ZM262.05,31.83c-.78-.92-2.07-1.61-3.67-1.61s-2.89.69-3.67,1.56c-.96,1.19-1.38,2.48-1.38,8.63s.41,7.39,1.38,8.59c.78.92,2.07,1.61,3.67,1.61s2.89-.69,3.63-1.61c1.01-1.19,1.42-2.43,1.42-8.59s-.41-7.44-1.38-8.59Z"/>
      <path class="cls-1" d="M296.5,56.76l-11.71-18.28v18.28h-7.25V24.07h6.38l11.71,18.23v-18.23h7.21v32.7h-6.34Z"/>
      <path class="cls-1" d="M311.6,56.76V24.07h21.9v6.43h-14.7v6.7h12.54v6.43h-12.54v6.71h14.7v6.43h-21.9Z"/>
      <g>
        <path class="cls-1" d="M194.88,78.1l-.65-2.03h-4.13l-.68,2.03h-2.89l4.53-12.47h2.14l4.55,12.47h-2.87ZM192.22,69.84l-1.37,3.92h2.64l-1.28-3.92Z"/>
        <path class="cls-1" d="M211.28,76.79c-1.03,1.07-2.22,1.42-3.57,1.42s-2.52-.49-3.42-1.38c-1.29-1.3-1.24-2.94-1.24-4.96s-.05-3.66,1.24-4.95c.89-.89,1.96-1.38,3.42-1.38,3.05,0,4.46,1.98,4.78,4.06h-2.77c-.26-1.05-.86-1.61-2.01-1.61-.61,0-1.09.26-1.38.59-.37.46-.53.95-.53,3.29s.16,2.85.53,3.29c.3.35.77.59,1.38.59.68,0,1.21-.23,1.54-.59.38-.4.53-.93.53-1.49v-.53h-2.07v-2.29h4.8v1.96c0,1.91-.31,3.05-1.23,3.97Z"/>
        <path class="cls-1" d="M227.11,76.79c-1.03,1.07-2.22,1.42-3.57,1.42s-2.52-.49-3.41-1.38c-1.3-1.3-1.24-2.94-1.24-4.96s-.05-3.66,1.24-4.95c.89-.89,1.96-1.38,3.41-1.38,3.05,0,4.46,1.98,4.78,4.06h-2.77c-.26-1.05-.86-1.61-2.01-1.61-.61,0-1.09.26-1.38.59-.37.46-.52.95-.52,3.29s.16,2.85.52,3.29c.3.35.77.59,1.38.59.68,0,1.21-.23,1.54-.59.38-.4.53-.93.53-1.49v-.53h-2.07v-2.29h4.8v1.96c0,1.91-.31,3.05-1.23,3.97Z"/>
        <path class="cls-1" d="M241.77,78.1l-2.35-4.9h-1.37v4.9h-2.77v-12.47h4.92c2.64,0,4.15,1.75,4.15,3.82,0,1.73-1.02,2.89-2.12,3.36l2.71,5.29h-3.19ZM241.61,69.47c0-.8-.59-1.38-1.54-1.38h-2.03v2.75h2.01c.96,0,1.56-.56,1.56-1.38v.02Z"/>
        <path class="cls-1" d="M251.2,78.1v-12.47h8.35v2.45h-5.6v2.56h4.78v2.45h-4.78v2.56h5.6v2.45h-8.35Z"/>
        <path class="cls-1" d="M274.14,76.79c-1.03,1.07-2.22,1.42-3.57,1.42s-2.52-.49-3.41-1.38c-1.3-1.3-1.24-2.94-1.24-4.96s-.05-3.66,1.24-4.95c.89-.89,1.96-1.38,3.41-1.38,3.05,0,4.46,1.98,4.78,4.06h-2.77c-.26-1.05-.86-1.61-2.01-1.61-.61,0-1.08.26-1.38.59-.37.46-.53.95-.53,3.29s.16,2.85.53,3.29c.3.35.77.59,1.38.59.68,0,1.21-.23,1.54-.59.38-.4.53-.93.53-1.49v-.53h-2.07v-2.29h4.8v1.96c0,1.91-.31,3.05-1.22,3.97Z"/>
        <path class="cls-1" d="M289.09,78.1l-.65-2.03h-4.13l-.68,2.03h-2.89l4.53-12.47h2.14l4.55,12.47h-2.87ZM286.43,69.84l-1.37,3.92h2.64l-1.28-3.92Z"/>
        <path class="cls-1" d="M301.28,68.08v10.02h-2.75v-10.02h-3.17v-2.45h9.07v2.45h-3.15Z"/>
        <path class="cls-1" d="M310.17,78.1v-12.47h8.35v2.45h-5.6v2.56h4.78v2.45h-4.78v2.56h5.6v2.45h-8.35Z"/>
        <path class="cls-1" d="M328.78,78.2c-1.89,0-3.4-.37-4.64-1.64l1.77-1.77c.72.72,1.82.96,2.89.96,1.33,0,2.01-.47,2.01-1.33,0-.37-.1-.68-.31-.89-.21-.19-.47-.32-.96-.38l-1.51-.21c-1.1-.16-1.91-.51-2.47-1.07-.6-.59-.87-1.42-.87-2.47,0-2.26,1.68-3.87,4.45-3.87,1.75,0,3.05.42,4.11,1.47l-1.73,1.73c-.79-.77-1.77-.81-2.45-.81-1.19,0-1.73.67-1.73,1.37,0,.23.09.52.32.74.19.19.54.37,1,.42l1.49.21c1.14.17,1.89.51,2.42,1,.67.65.96,1.56.96,2.7,0,2.47-2.1,3.85-4.73,3.85Z"/>
      </g>
    </g>
  </g>
</svg>